<svg width="36" height="14" viewBox="0 0 36 14" fill="none" xmlns="http://www.w3.org/2000/svg">
  <path
    d="M1 5.84357H32.8212L28.4104 1.43274C28.3308 1.35587 28.2673 1.26391 28.2236 1.16224C28.1799 1.06057 28.1569 0.951224 28.156 0.840575C28.155 0.729925 28.1761 0.620192 28.218 0.517778C28.2599 0.415365 28.3218 0.322321 28.4 0.244078C28.4783 0.165834 28.5713 0.103956 28.6737 0.0620553C28.7761 0.0201545 28.8859 -0.000930049 28.9965 3.14642e-05C29.1072 0.000992978 29.2165 0.0239815 29.3182 0.0676557C29.4199 0.11133 29.5118 0.174815 29.5887 0.254407L35.422 6.08774C35.5783 6.24401 35.666 6.45594 35.666 6.67691C35.666 6.89788 35.5783 7.1098 35.422 7.26607L29.5887 13.0994C29.4315 13.2512 29.221 13.3352 29.0025 13.3333C28.784 13.3314 28.575 13.2438 28.4205 13.0893C28.266 12.9347 28.1784 12.7257 28.1765 12.5072C28.1746 12.2887 28.2586 12.0782 28.4104 11.9211L32.8212 7.51024H1C0.778986 7.51024 0.567024 7.42244 0.410744 7.26616C0.254463 7.10988 0.166664 6.89792 0.166664 6.67691C0.166664 6.45589 0.254463 6.24393 0.410744 6.08765C0.567024 5.93137 0.778986 5.84357 1 5.84357Z"
    fill="currentColor"
  />
</svg>
