<svg width="35" height="43" viewBox="0 0 35 43" fill="none" xmlns="http://www.w3.org/2000/svg">
  <path
    d="M25.481 25.9271C24.6744 25.2446 23.7008 24.6003 22.5888 24.0132C22.3836 23.7555 22.1402 23.5121 21.8681 23.2878C23.0088 22.3715 25.3092 20.2095 25.3092 17.6418V13.251C27.6048 10.8551 28.3016 6.90819 26.8507 4.35961C24.1781 -0.99049 15.6685 -1.20048 11.8027 2.55079C5.24988 1.58672 4.98261 10.2299 9.12047 12.8644V17.6418C9.12047 20.1904 11.3111 22.2951 12.5472 23.2783C12.2656 23.5026 12.0174 23.7507 11.8027 24.0228C10.6907 24.6385 9.75523 25.2541 8.94388 25.9271C3.67014 27.545 0 32.4608 0 37.9254V41.5287C0 42.3114 0.644303 42.951 1.43178 42.951H32.9883C33.7806 42.951 34.4201 42.3114 34.4201 41.5287V37.9254C34.4249 32.4608 30.75 27.5402 25.481 25.9271ZM20.8706 32.5801C21.5913 33.1623 22.417 33.4582 23.3238 33.4535C22.7845 36.5461 21.3002 39.3858 19.5486 41.9583L19.0189 41.8962C19.9114 36.8277 19.835 31.6494 18.9377 26.495C18.9377 26.1036 18.9377 25.1968 18.9377 24.7959C19.6918 24.6003 20.4173 24.2948 21.0711 23.8701C21.4147 24.1182 21.6915 24.3998 21.9206 24.7005C22.207 25.0919 22.4074 25.5309 22.5077 26.0082C22.5458 26.1705 22.5745 26.3518 22.5983 26.6095L23.1376 30.1079C22.8561 30.9192 22.1927 31.4394 21.0568 31.7449C20.6797 31.8356 20.57 32.3558 20.8706 32.5801ZM18.6514 36.4364C18.5607 38.3024 18.3603 40.159 18.0262 41.9965H16.3701C15.406 36.8134 15.5301 31.4967 16.413 26.3184H17.9784C18.4557 29.6688 18.8232 33.0478 18.6514 36.4364ZM13.7881 40.3165C12.5138 38.2022 11.4925 35.897 11.0677 33.4582C11.9745 33.4582 12.7954 33.1671 13.5208 32.5849C13.6592 32.4703 13.726 32.289 13.6879 32.1124C13.6497 31.9358 13.516 31.7974 13.3442 31.7496C12.2084 31.4442 11.545 30.924 11.2634 30.1126L11.8027 26.5905C11.9124 25.4641 12.4183 24.4905 13.349 23.8653C13.9981 24.2853 14.714 24.5907 15.4585 24.7912V26.495C14.5088 31.4872 14.4801 36.6654 15.3774 41.8962L14.8428 41.963C14.4753 41.4237 14.1126 40.8749 13.7881 40.3165ZM17.9784 24.9678V25.3639H16.413V24.963C16.8092 25.0012 17.6062 25.025 17.9784 24.9678ZM7.56937 5.71026C8.14686 3.94917 9.68364 3.17123 11.8981 3.5244C12.0556 3.54827 12.2131 3.49577 12.3229 3.38123C15.6399 -0.0980108 23.6054 -0.0359675 26.0155 4.82255C27.2707 7.0275 26.6598 10.4495 24.6601 12.559C21.639 12.2344 18.6132 11.3276 16.2126 9.41381C15.8069 9.16563 15.4299 8.54997 14.9812 8.48315C12.6522 8.56429 10.8816 10.2681 9.49751 11.9767C7.808 10.8265 6.86302 7.86271 7.56937 5.71026ZM10.0702 17.6418V12.769C11.3063 11.2799 12.7477 9.6429 14.7999 9.45199C17.3819 11.886 20.8802 13.0649 24.3499 13.4896V17.6418C24.3069 20.3908 21.1618 22.634 20.6988 22.9728C20.0307 23.4358 19.2861 23.7555 18.4748 23.9273C17.7875 24.018 17.0478 24.166 15.931 23.9226C15.1292 23.746 14.3942 23.4358 13.6974 22.9585C13.034 22.4812 10.1036 20.3097 10.0702 17.6418ZM1.43178 41.9965C1.16929 41.9965 0.954523 41.7865 0.954523 41.5287V37.9254C0.954523 33.611 3.44106 29.6688 7.20665 27.6834C6.03259 29.1772 5.4551 30.8285 5.45033 32.6803C4.20467 33.0287 3.3456 34.3507 3.56037 35.6346L3.80855 37.3241C3.84673 37.5866 4.0949 37.7631 4.34785 37.7297L5.38828 37.5818C5.65078 37.5436 5.83214 37.3002 5.79396 37.0425C5.75577 36.78 5.51237 36.5986 5.25465 36.6368L4.68671 36.7179L4.51012 35.5009C4.3574 34.5703 5.07329 33.6444 6.00872 33.5298C6.97279 33.3914 7.87482 34.0548 8.01322 35.0046L8.18981 36.2216L7.598 36.3075C6.98234 36.3982 7.11597 37.3384 7.73164 37.2525L8.8007 37.0997C9.05365 37.0663 9.24933 36.8134 9.20638 36.5557L8.9582 34.8662C8.76729 33.5776 7.68391 32.6326 6.4144 32.561C6.45258 30.3322 7.46914 28.4231 9.48796 26.7289C9.94613 26.347 10.452 25.97 11.0247 25.6025C10.9484 25.8889 10.8911 26.1752 10.8625 26.4711L10.3089 30.084C10.4329 31.091 11.1631 31.8403 12.1224 32.3176C11.6547 32.4989 11.1441 32.5514 10.5857 32.4703C10.285 32.4178 9.99863 32.6994 10.0464 33.0048C10.4711 36.2598 11.9459 39.2713 13.7213 42.0012H1.43178V41.9965ZM33.4704 41.5287C33.4704 41.7865 33.2556 41.9965 32.9931 41.9965H20.6797C22.4552 39.2665 23.9347 36.255 24.3547 33.0001C24.4024 32.6994 24.116 32.413 23.8154 32.4655C23.257 32.5467 22.7463 32.4942 22.2786 32.3128C23.2379 31.8356 23.9681 31.0863 24.0922 30.0792L23.5433 26.4998C23.5195 26.2277 23.486 26.0034 23.4383 25.803C23.424 25.7266 23.4049 25.6502 23.381 25.5739C26.1539 27.2491 28.0678 29.9981 27.8148 33.1671C25.6051 33.6587 25.9248 36.8802 28.2109 36.9136C30.3968 36.8945 30.8406 33.84 28.7646 33.2148C28.8696 31.1197 28.3064 29.2393 27.0798 27.6118C30.9218 29.5733 33.4704 33.5585 33.4704 37.9302V41.5287ZM28.1966 34.0787C28.2157 34.0787 28.23 34.0835 28.2491 34.0835C29.4804 34.1455 29.447 35.94 28.2109 35.9543C26.9605 35.9352 26.9462 34.1216 28.1966 34.0787Z"
    fill="#E81F41"
  />
</svg>
