<svg width="42" height="44" viewBox="0 0 42 44" fill="none" xmlns="http://www.w3.org/2000/svg">
  <path
    d="M25.481 26.3733C24.6744 25.6909 23.7008 25.0466 22.5888 24.4595C22.3836 24.2018 22.1402 23.9584 21.8681 23.7341C23.0088 22.8177 25.3092 20.6558 25.3092 18.0881V13.6973C27.6048 11.3014 28.3016 7.35448 26.8507 4.8059C24.1781 -0.544201 15.6685 -0.754196 11.8027 2.99708C5.24988 2.03301 4.98261 10.6762 9.12047 13.3107V18.0881C9.12047 20.6367 11.3111 22.7414 12.5472 23.7245C12.2656 23.9489 12.0174 24.197 11.8027 24.4691C10.6907 25.0847 9.75523 25.7004 8.94388 26.3733C3.67014 27.9913 0 32.9071 0 38.3717V41.975C0 42.7577 0.644303 43.3973 1.43178 43.3973H32.9883C33.7806 43.3973 34.4201 42.7577 34.4201 41.975V38.3717C34.4249 32.9071 30.75 27.9865 25.481 26.3733ZM20.8706 33.0264C21.5913 33.6086 22.417 33.9045 23.3238 33.8998C22.7845 36.9924 21.3002 39.8321 19.5486 42.4046L19.0189 42.3425C19.9114 37.274 19.835 32.0957 18.9377 26.9413C18.9377 26.5499 18.9377 25.6431 18.9377 25.2422C19.6918 25.0466 20.4173 24.7411 21.0711 24.3164C21.4147 24.5645 21.6915 24.8461 21.9206 25.1468C22.207 25.5381 22.4074 25.9772 22.5077 26.4545C22.5458 26.6168 22.5745 26.7981 22.5983 27.0558L23.1376 30.5542C22.8561 31.3655 22.1927 31.8857 21.0568 32.1912C20.6797 32.2818 20.57 32.8021 20.8706 33.0264ZM18.6514 36.8826C18.5607 38.7487 18.3603 40.6053 18.0262 42.4427H16.3701C15.406 37.2597 15.5301 31.943 16.413 26.7647H17.9784C18.4557 30.1151 18.8232 33.4941 18.6514 36.8826ZM13.7881 40.7628C12.5138 38.6485 11.4925 36.3433 11.0677 33.9045C11.9745 33.9045 12.7954 33.6134 13.5208 33.0311C13.6592 32.9166 13.726 32.7352 13.6879 32.5587C13.6497 32.3821 13.516 32.2437 13.3442 32.1959C12.2084 31.8905 11.545 31.3703 11.2634 30.5589L11.8027 27.0367C11.9124 25.9104 12.4183 24.9368 13.349 24.3116C13.9981 24.7316 14.714 25.037 15.4585 25.2375V26.9413C14.5088 31.9334 14.4801 37.1117 15.3774 42.3425L14.8428 42.4093C14.4753 41.87 14.1126 41.3212 13.7881 40.7628ZM17.9784 25.4141V25.8102H16.413V25.4093C16.8092 25.4475 17.6062 25.4713 17.9784 25.4141ZM7.56937 6.15655C8.14686 4.39545 9.68364 3.61752 11.8981 3.97069C12.0556 3.99456 12.2131 3.94206 12.3229 3.82751C15.6399 0.348278 23.6054 0.410322 26.0155 5.26884C27.2707 7.47379 26.6598 10.8958 24.6601 13.0053C21.639 12.6807 18.6132 11.7739 16.2126 9.8601C15.8069 9.61192 15.4299 8.99626 14.9812 8.92944C12.6522 9.01057 10.8816 10.7144 9.49751 12.423C7.808 11.2728 6.86302 8.309 7.56937 6.15655ZM10.0702 18.0881V13.2152C11.3063 11.7262 12.7477 10.0892 14.7999 9.89828C17.3819 12.3323 20.8802 13.5111 24.3499 13.9359V18.0881C24.3069 20.8371 21.1618 23.0802 20.6988 23.4191C20.0307 23.882 19.2861 24.2018 18.4748 24.3736C17.7875 24.4643 17.0478 24.6123 15.931 24.3689C15.1292 24.1923 14.3942 23.882 13.6974 23.4048C13.034 22.9275 10.1036 20.756 10.0702 18.0881ZM1.43178 42.4427C1.16929 42.4427 0.954523 42.2327 0.954523 41.975V38.3717C0.954523 34.0573 3.44106 30.1151 7.20665 28.1297C6.03259 29.6235 5.4551 31.2748 5.45033 33.1266C4.20467 33.475 3.3456 34.797 3.56037 36.0808L3.80855 37.7703C3.84673 38.0328 4.0949 38.2094 4.34785 38.176L5.38828 38.0281C5.65078 37.9899 5.83214 37.7465 5.79396 37.4888C5.75577 37.2263 5.51237 37.0449 5.25465 37.0831L4.68671 37.1642L4.51012 35.9472C4.3574 35.0166 5.07329 34.0907 6.00872 33.9761C6.97279 33.8377 7.87482 34.5011 8.01322 35.4509L8.18981 36.6679L7.598 36.7538C6.98234 36.8445 7.11597 37.7847 7.73164 37.6988L8.8007 37.546C9.05365 37.5126 9.24933 37.2597 9.20638 37.002L8.9582 35.3125C8.76729 34.0238 7.68391 33.0789 6.4144 33.0073C6.45258 30.7785 7.46914 28.8694 9.48796 27.1751C9.94613 26.7933 10.452 26.4163 11.0247 26.0488C10.9484 26.3352 10.8911 26.6215 10.8625 26.9174L10.3089 30.5303C10.4329 31.5373 11.1631 32.2866 12.1224 32.7639C11.6547 32.9452 11.1441 32.9977 10.5857 32.9166C10.285 32.8641 9.99863 33.1457 10.0464 33.4511C10.4711 36.7061 11.9459 39.7176 13.7213 42.4475H1.43178V42.4427ZM33.4704 41.975C33.4704 42.2327 33.2556 42.4427 32.9931 42.4427H20.6797C22.4552 39.7128 23.9347 36.7013 24.3547 33.4464C24.4024 33.1457 24.116 32.8593 23.8154 32.9118C23.257 32.993 22.7463 32.9405 22.2786 32.7591C23.2379 32.2818 23.9681 31.5325 24.0922 30.5255L23.5433 26.9461C23.5195 26.674 23.486 26.4497 23.4383 26.2493C23.424 26.1729 23.4049 26.0965 23.381 26.0202C26.1539 27.6954 28.0678 30.4444 27.8148 33.6134C25.6051 34.105 25.9248 37.3265 28.2109 37.3599C30.3968 37.3408 30.8406 34.2863 28.7646 33.6611C28.8696 31.566 28.3064 29.6855 27.0798 28.0581C30.9218 30.0196 33.4704 34.0048 33.4704 38.3765V41.975ZM28.1966 34.525C28.2157 34.525 28.23 34.5297 28.2491 34.5297C29.4804 34.5918 29.447 36.3863 28.2109 36.4006C26.9605 36.3815 26.9462 34.5679 28.1966 34.525Z"
    fill="#E81F41"
  />
  <path
    d="M35.785 3.20236C31.733 3.14031 28.6451 7.23522 29.8049 11.1058C29.7094 12.8478 28.8981 14.146 27.1036 15.4298C26.7027 15.6971 26.97 16.37 27.4425 16.2936C29.6617 16.0073 31.294 15.5062 32.5587 14.7187C36.5629 17.2529 42.0848 14.1603 41.9989 9.41153C41.9989 5.98479 39.2117 3.20236 35.785 3.20236ZM35.785 14.6614C34.7255 14.6614 33.6993 14.3464 32.826 13.7498C32.6637 13.6401 32.4489 13.6401 32.2867 13.7498C31.4467 14.3273 30.3872 14.7521 29.027 15.0528C29.9338 14.1221 30.6878 12.8621 30.7642 11.0676C30.6592 10.5235 30.5017 9.98902 30.5256 9.41153C30.5256 6.51455 32.8832 4.16165 35.785 4.16165C42.7625 4.44324 42.7625 14.3703 35.785 14.6614Z"
    fill="#E81F41"
  />
  <path
    d="M35.9472 5.918C35.5319 5.88937 34.9306 5.90369 34.5106 6.30459C34.1336 6.60526 33.7374 7.85091 34.5583 7.9225C34.8208 7.9225 35.0356 7.70774 35.0356 7.44524C34.9831 6.84867 35.5272 6.84866 35.8803 6.87253C36.3147 6.91071 36.5533 7.09684 36.5485 7.92728C36.2192 8.56203 35.4842 8.77203 35.4651 10.0368C35.4651 10.662 36.4006 10.6811 36.4196 10.0511C36.4244 9.00111 37.4028 8.99157 37.503 7.975C37.5078 6.69594 36.9924 6.00868 35.9472 5.918Z"
    fill="#E81F41"
  />
  <path
    d="M35.905 10.915C35.6425 10.915 35.4277 11.1298 35.4277 11.3923V12.0366C35.4277 12.2991 35.6425 12.5139 35.905 12.5139C36.1675 12.5139 36.3823 12.2991 36.3823 12.0366V11.3923C36.3823 11.1298 36.1723 10.915 35.905 10.915Z"
    fill="#E81F41"
  />
</svg>
