<svg width="63" height="80" viewBox="0 0 63 80" fill="none" xmlns="http://www.w3.org/2000/svg">
  <path
    d="M54.6327 79.2174H8.1949C6.02148 79.2174 3.93707 78.354 2.40023 76.8172C0.863389 75.2803 0 73.1959 0 71.0225V8.1949C0 6.02148 0.863389 3.93707 2.40023 2.40023C3.93707 0.863389 6.02148 0 8.1949 0H46.4378L62.8276 16.3898V71.0225C62.8276 73.1959 61.9642 75.2803 60.4274 76.8172C58.8905 78.354 56.8061 79.2174 54.6327 79.2174Z"
    fill="#92D4D2"
    fill-opacity="0.2"
  />
  <path
    d="M0 57.3643H62.8276V71.0224C62.8276 73.1959 61.9642 75.2803 60.4274 76.8171C58.8905 78.3539 56.8061 79.2173 54.6327 79.2173H8.1949C6.02148 79.2173 3.93707 78.3539 2.40023 76.8171C0.863389 75.2803 0 73.1959 0 71.0224V57.3643Z"
    fill="#92D4D2"
  />
  <path
    d="M62.8273 16.3898H54.6324C52.459 16.3898 50.3746 15.5264 48.8377 13.9896C47.3009 12.4527 46.4375 10.3683 46.4375 8.1949V0L62.8273 16.3898Z"
    fill="#92D4D2"
  />
  <path d="M13.6582 19.1216H49.1694V46.4379H13.6582V19.1216Z" fill="white" />
  <path
    d="M24.5847 32.7798L31.4138 40.9747L39.6087 38.2431L49.1694 46.438H13.6582L24.5847 32.7798Z"
    fill="#92D4D2"
  />
  <path
    d="M36.8771 32.7797C38.3858 32.7797 39.6088 31.5567 39.6088 30.048C39.6088 28.5394 38.3858 27.3164 36.8771 27.3164C35.3685 27.3164 34.1455 28.5394 34.1455 30.048C34.1455 31.5567 35.3685 32.7797 36.8771 32.7797Z"
    fill="#92D4D2"
  />
  <path
    d="M30.0486 61.4619H27.317C26.9548 61.4619 26.6073 61.6058 26.3512 61.862C26.0951 62.1181 25.9512 62.4655 25.9512 62.8277V73.7543C25.9512 74.1165 26.0951 74.4639 26.3512 74.72C26.6073 74.9762 26.9548 75.1201 27.317 75.1201C27.6792 75.1201 28.0266 74.9762 28.2828 74.72C28.5389 74.4639 28.6828 74.1165 28.6828 73.7543V69.6568H30.0486C31.1353 69.6568 32.1775 69.2251 32.946 68.4567C33.7144 67.6883 34.1461 66.6461 34.1461 65.5594C34.1461 64.4727 33.7144 63.4305 32.946 62.662C32.1775 61.8936 31.1353 61.4619 30.0486 61.4619ZM30.0486 66.9252H28.6828V64.1935H30.0486C30.4109 64.1935 30.7583 64.3374 31.0144 64.5936C31.2705 64.8497 31.4144 65.1971 31.4144 65.5594C31.4144 65.9216 31.2705 66.269 31.0144 66.5251C30.7583 66.7813 30.4109 66.9252 30.0486 66.9252Z"
    fill="white"
  />
  <path
    d="M21.8535 61.4619C21.4913 61.4619 21.1439 61.6058 20.8877 61.862C20.6316 62.1181 20.4877 62.4655 20.4877 62.8277V71.0226C20.4877 71.3849 20.3438 71.7323 20.0876 71.9884C19.8315 72.2446 19.4841 72.3885 19.1219 72.3885C18.7596 72.3885 18.4122 72.2446 18.1561 71.9884C17.8999 71.7323 17.756 71.3849 17.756 71.0226C17.756 70.6604 17.6122 70.313 17.356 70.0569C17.0999 69.8007 16.7525 69.6568 16.3902 69.6568C16.028 69.6568 15.6806 69.8007 15.4245 70.0569C15.1683 70.313 15.0244 70.6604 15.0244 71.0226C15.0244 72.1093 15.4561 73.1515 16.2245 73.92C16.993 74.6884 18.0352 75.1201 19.1219 75.1201C20.2086 75.1201 21.2508 74.6884 22.0192 73.92C22.7876 73.1515 23.2193 72.1093 23.2193 71.0226V62.8277C23.2193 62.4655 23.0754 62.1181 22.8193 61.862C22.5631 61.6058 22.2157 61.4619 21.8535 61.4619Z"
    fill="white"
  />
  <path
    d="M46.4377 66.9252H43.706C43.3438 66.9252 42.9964 67.0691 42.7403 67.3252C42.4841 67.5814 42.3402 67.9288 42.3402 68.291C42.3402 68.6532 42.4841 69.0006 42.7403 69.2568C42.9964 69.5129 43.3438 69.6568 43.706 69.6568H44.9095C44.525 71.2304 43.5034 72.3885 42.3402 72.3885C40.8595 72.3885 39.6086 70.512 39.6086 68.291C39.6086 66.07 40.8595 64.1935 42.3402 64.1935C42.6115 64.1948 42.8792 64.2565 43.1237 64.374C43.4514 64.5285 43.827 64.5464 44.1679 64.4239C44.3367 64.3633 44.4919 64.27 44.6246 64.1494C44.7573 64.0287 44.865 63.8831 44.9415 63.7209C45.018 63.5586 45.0618 63.3829 45.0703 63.2038C45.0789 63.0246 45.0521 62.8455 44.9914 62.6767C44.9308 62.5079 44.8375 62.3527 44.7169 62.22C44.5962 62.0872 44.4506 61.9796 44.2884 61.9031C43.6798 61.6133 43.0143 61.4626 42.3402 61.4619C39.3277 61.4619 36.877 64.5254 36.877 68.291C36.877 72.0566 39.3277 75.1201 42.3402 75.1201C45.3527 75.1201 47.8035 72.0566 47.8035 68.291C47.8035 67.9288 47.6596 67.5814 47.4035 67.3252C47.1473 67.0691 46.7999 66.9252 46.4377 66.9252Z"
    fill="white"
  />
</svg>
