<svg version="1.0" xmlns="http://www.w3.org/2000/svg"
 width="600.000000pt" height="600.000000pt" viewBox="50 50 500.000000 500.000000"
 preserveAspectRatio="xMidYMid meet">

<g transform="translate(0.000000,600.000000) scale(0.100000,-0.100000)"
fill="white" stroke="none">
<path d="M2911 4633 c-59 -21 -124 -87 -144 -148 -20 -57 -21 -95 -6 -150 11
-38 228 -425 239 -425 3 0 58 92 123 205 100 173 119 212 124 258 19 185 -159
322 -336 260z"/>
<path d="M2355 4312 c-63 -34 -110 -96 -124 -163 -26 -119 32 -230 146 -281
37 -16 66 -18 282 -16 l240 3 -109 190 c-60 105 -123 205 -141 224 -72 76
-200 95 -294 43z"/>
<path d="M3424 4321 c-63 -29 -96 -70 -214 -276 l-110 -190 233 -3 c141 -2
246 1 268 7 206 60 230 366 35 457 -64 30 -153 32 -212 5z"/>
<path d="M2410 3731 c-72 -22 -138 -79 -164 -143 -23 -54 -21 -152 5 -204 47
-99 163 -158 267 -136 64 13 114 43 146 85 25 33 236 392 236 402 0 8 -462 4
-490 -4z"/>
<path d="M3111 3718 c89 -169 227 -393 257 -418 162 -133 404 -20 405 190 0
96 -49 176 -138 224 -37 20 -57 21 -288 24 l-248 3 12 -23z"/>
<path d="M2884 3484 c-59 -103 -113 -203 -120 -223 -20 -56 -17 -120 10 -177
97 -208 398 -185 462 35 26 87 12 131 -117 356 -62 107 -116 195 -120 195 -4
0 -56 -84 -115 -186z"/>
<path d="M759 2473 c-14 -2 -54 -18 -89 -36 -87 -43 -123 -94 -128 -181 -8
-127 68 -200 263 -251 117 -30 165 -61 165 -105 0 -44 -32 -64 -111 -68 -83
-5 -146 10 -198 49 l-38 27 -59 -59 -58 -59 23 -24 c29 -31 123 -73 191 -86
149 -28 307 7 382 87 58 61 74 161 39 238 -34 75 -88 107 -256 155 -128 37
-157 55 -157 95 0 87 165 96 314 17 7 -3 98 114 98 127 0 13 -103 58 -158 70
-50 10 -167 13 -223 4z"/>
<path d="M3283 2466 c-188 -61 -298 -252 -264 -457 23 -143 89 -237 206 -295
63 -31 86 -37 162 -41 133 -8 280 37 345 104 l27 28 -51 58 -51 58 -21 -20
c-34 -32 -111 -61 -179 -68 -91 -8 -154 15 -207 74 -22 25 -40 51 -40 57 0 6
-3 21 -6 34 l-6 22 286 0 286 0 0 53 c0 65 -23 165 -51 219 -32 63 -104 133
-162 159 -65 28 -209 36 -274 15z m209 -168 c43 -24 72 -65 83 -115 l7 -33
-192 0 -192 0 6 32 c8 43 49 94 94 118 53 27 142 27 194 -2z"/>
<path d="M4965 2467 c-115 -38 -194 -107 -246 -212 -57 -117 -50 -276 18 -392
36 -63 124 -138 191 -164 83 -33 233 -33 315 0 81 32 168 115 210 200 30 62
32 72 32 176 0 103 -2 114 -32 177 -40 86 -106 151 -191 191 -58 27 -80 32
-162 34 -59 2 -110 -2 -135 -10z m238 -184 c53 -37 90 -108 95 -184 6 -86 -13
-144 -67 -200 -82 -84 -192 -91 -277 -17 -48 43 -76 101 -82 174 -8 107 37
195 123 240 67 34 148 29 208 -13z"/>
<path d="M2479 2461 c-41 -13 -72 -31 -105 -63 l-31 -29 -7 40 -6 41 -90 0
-90 0 0 -380 0 -380 95 0 95 0 0 233 c0 203 3 237 19 272 63 139 243 156 297
28 11 -25 14 -93 14 -283 l0 -250 95 0 95 0 0 264 c0 239 -2 270 -21 331 -25
82 -81 144 -154 168 -50 18 -160 21 -206 8z"/>
<path d="M1220 2443 c0 -4 74 -172 165 -373 119 -260 164 -371 160 -388 -9
-38 -55 -128 -76 -151 -30 -32 -63 -36 -106 -13 l-38 19 -39 -61 c-45 -71 -42
-83 30 -108 123 -43 237 -8 304 92 21 30 56 102 80 160 23 58 109 266 191 462
82 197 149 360 149 363 0 3 -46 4 -102 3 l-101 -3 -90 -245 c-49 -135 -92
-249 -97 -253 -4 -5 -54 106 -112 245 l-105 253 -107 3 c-58 1 -106 -1 -106
-5z"/>
<path d="M3811 2443 c0 -5 71 -174 158 -378 l157 -370 95 -3 96 -3 160 381
161 380 -103 0 c-87 0 -104 -3 -109 -17 -4 -9 -48 -127 -98 -262 -50 -135 -94
-249 -97 -253 -4 -4 -52 114 -106 262 l-100 270 -107 0 c-60 0 -108 -3 -107
-7z"/>
</g>
</svg>
